<mxfile host="app.diagrams.net" modified="2022-06-21T11:47:15.632Z" agent="5.0 (Macintosh; Intel Mac OS X 10_15_7) AppleWebKit/537.36 (KHTML, like Gecko) Chrome/102.0.0.0 Safari/537.36" etag="47hymCZpzOrnoi_P8rIO" version="18.1.3" type="github">
  <diagram id="6a731a19-8d31-9384-78a2-239565b7b9f0" name="Page-1">
    <mxGraphModel dx="946" dy="564" grid="1" gridSize="10" guides="1" tooltips="1" connect="1" arrows="1" fold="1" page="1" pageScale="1" pageWidth="1169" pageHeight="827" background="none" math="0" shadow="0">
      <root>
        <mxCell id="0" />
        <mxCell id="1" parent="0" />
        <mxCell id="NKCjIXskumcPG5FkUTFe-56" value="" style="edgeStyle=orthogonalEdgeStyle;rounded=0;orthogonalLoop=1;jettySize=auto;html=1;fillColor=#EDEDED;" edge="1" parent="1" source="NKCjIXskumcPG5FkUTFe-57" target="NKCjIXskumcPG5FkUTFe-59">
          <mxGeometry relative="1" as="geometry" />
        </mxCell>
        <mxCell id="NKCjIXskumcPG5FkUTFe-57" value="上证指数指标数据+(百度搜索指数+股民情感倾向)" style="rounded=1;whiteSpace=wrap;html=1;fillColor=none;" vertex="1" parent="1">
          <mxGeometry x="210" y="47.02" width="120" height="60" as="geometry" />
        </mxCell>
        <mxCell id="NKCjIXskumcPG5FkUTFe-58" value="" style="edgeStyle=orthogonalEdgeStyle;rounded=0;orthogonalLoop=1;jettySize=auto;html=1;fillColor=#EDEDED;" edge="1" parent="1" source="NKCjIXskumcPG5FkUTFe-59" target="NKCjIXskumcPG5FkUTFe-92">
          <mxGeometry relative="1" as="geometry">
            <mxPoint x="270" y="209.01999999999998" as="targetPoint" />
          </mxGeometry>
        </mxCell>
        <mxCell id="NKCjIXskumcPG5FkUTFe-59" value="根据时间窗口长度&lt;br&gt;处理数据" style="rounded=0;whiteSpace=wrap;html=1;fillColor=none;" vertex="1" parent="1">
          <mxGeometry x="210" y="126.02000000000001" width="120" height="60" as="geometry" />
        </mxCell>
        <mxCell id="NKCjIXskumcPG5FkUTFe-68" value="预测下一天的收盘价" style="rounded=1;whiteSpace=wrap;html=1;fillColor=none;" vertex="1" parent="1">
          <mxGeometry x="210" y="370" width="120" height="60" as="geometry" />
        </mxCell>
        <mxCell id="NKCjIXskumcPG5FkUTFe-76" value="" style="edgeStyle=orthogonalEdgeStyle;rounded=0;orthogonalLoop=1;jettySize=auto;html=1;" edge="1" parent="1" source="NKCjIXskumcPG5FkUTFe-77">
          <mxGeometry relative="1" as="geometry">
            <mxPoint x="270" y="410" as="targetPoint" />
          </mxGeometry>
        </mxCell>
        <mxCell id="NKCjIXskumcPG5FkUTFe-83" value="" style="edgeStyle=orthogonalEdgeStyle;rounded=0;orthogonalLoop=1;jettySize=auto;html=1;entryX=0.5;entryY=0;entryDx=0;entryDy=0;" edge="1" parent="1" source="NKCjIXskumcPG5FkUTFe-78">
          <mxGeometry relative="1" as="geometry">
            <mxPoint x="270" y="460" as="targetPoint" />
          </mxGeometry>
        </mxCell>
        <mxCell id="NKCjIXskumcPG5FkUTFe-81" value="" style="strokeWidth=2;html=1;shape=mxgraph.flowchart.annotation_2;align=left;labelPosition=right;pointerEvents=1;" vertex="1" parent="1">
          <mxGeometry x="186" y="291" width="20" height="60" as="geometry" />
        </mxCell>
        <mxCell id="NKCjIXskumcPG5FkUTFe-82" value="2层" style="text;html=1;align=center;verticalAlign=middle;resizable=0;points=[];autosize=1;strokeColor=none;fillColor=none;" vertex="1" parent="1">
          <mxGeometry x="157" y="310" width="30" height="20" as="geometry" />
        </mxCell>
        <mxCell id="NKCjIXskumcPG5FkUTFe-94" value="" style="edgeStyle=orthogonalEdgeStyle;rounded=0;orthogonalLoop=1;jettySize=auto;html=1;" edge="1" parent="1" source="NKCjIXskumcPG5FkUTFe-92" target="NKCjIXskumcPG5FkUTFe-93">
          <mxGeometry relative="1" as="geometry" />
        </mxCell>
        <mxCell id="NKCjIXskumcPG5FkUTFe-92" value="&lt;span style=&quot;&quot;&gt;BN层&lt;br&gt;&lt;/span&gt;Skip-LSTM/LSTM层&lt;br&gt;Dropout层&lt;span style=&quot;&quot;&gt;&lt;br&gt;&lt;/span&gt;" style="rounded=0;whiteSpace=wrap;html=1;fillColor=none;" vertex="1" parent="1">
          <mxGeometry x="210" y="207" width="120" height="60" as="geometry" />
        </mxCell>
        <mxCell id="NKCjIXskumcPG5FkUTFe-95" value="" style="edgeStyle=orthogonalEdgeStyle;rounded=0;orthogonalLoop=1;jettySize=auto;html=1;" edge="1" parent="1" source="NKCjIXskumcPG5FkUTFe-93" target="NKCjIXskumcPG5FkUTFe-68">
          <mxGeometry relative="1" as="geometry" />
        </mxCell>
        <mxCell id="NKCjIXskumcPG5FkUTFe-93" value="&lt;span style=&quot;&quot;&gt;BN层&lt;br&gt;&lt;/span&gt;LSTM层&lt;br&gt;Dropout层&lt;span style=&quot;&quot;&gt;&lt;br&gt;&lt;/span&gt;" style="rounded=0;whiteSpace=wrap;html=1;fillColor=none;" vertex="1" parent="1">
          <mxGeometry x="210" y="290" width="120" height="60" as="geometry" />
        </mxCell>
      </root>
    </mxGraphModel>
  </diagram>
</mxfile>
